<svg width="14" height="13" viewBox="0 0 14 13" xmlns="http://www.w3.org/2000/svg"><path d="M6.933 13L1.395 7.427C.494 6.517 0 5.356 0 4.142 0 2.981.459 1.88 1.291 1.048 1.976.363 2.877-.001 3.874-.001c1.049 0 2.149.407 3.059 1.109.91-.702 2.011-1.109 3.059-1.109 1.005 0 1.898.364 2.591 1.057a4.365 4.365 0 0 1 1.283 3.085c0 1.213-.494 2.375-1.395 3.285l-5.538 5.573zM4.115 1.972c-.535 0-.99.184-1.341.543a2.493 2.493 0 0 0-.75 1.788c0 .718.303 1.421.854 1.971l4.055 4.087 4.055-4.087c.551-.559.854-1.253.854-1.971a2.56 2.56 0 0 0-.75-1.796 1.837 1.837 0 0 0-1.341-.543c-.774 0-1.652.399-2.291 1.046l-.527.535-.519-.527c-.647-.647-1.524-1.046-2.299-1.046z" fill="#F24242"/></svg>