<svg width="143" height="28" viewBox="0 0 143 28" xmlns="http://www.w3.org/2000/svg"><g fill="none"><path d="M7.323 14.314l-3.867 8.686h-2.821l4.248-9.288c-.993-.507-1.796-1.252-2.409-2.235-.613-.983-.919-2.319-.919-4.01 0-1.183.174-2.224.523-3.122.349-.898.824-1.643 1.427-2.235.602-.592 1.305-1.036 2.108-1.331.803-.296 1.648-.444 2.536-.444h3.646v22.666h-2.441v-8.686h-2.029zm2.029-11.919h-1.3c-.486 0-.962.09-1.427.269-.465.18-.877.465-1.236.856-.359.391-.65.909-.872 1.553-.222.645-.333 1.442-.333 2.393 0 .909.1 1.67.301 2.282.201.613.475 1.109.824 1.49.349.38.761.65 1.236.808.476.159.977.238 1.506.238h1.3v-9.89z" fill="#f00"/><path d="M35.762 26.138h-2.219v-3.138h-6.847v3.138h-2.219v-5.167h.983c.359-.845.645-1.78.856-2.805.211-1.025.375-2.082.491-3.17.116-1.088.19-2.198.222-3.329.032-1.131.048-2.224.048-3.281v-1.363h7.418v13.948h1.268v5.167zm10.746-4.216c-.507.402-1.088.719-1.744.951-.655.232-1.384.349-2.187.349-1.648 0-2.948-.639-3.899-1.918-.951-1.279-1.426-3.154-1.426-5.627 0-1.289.09-2.473.269-3.55.18-1.078.465-2.013.856-2.805.391-.793.893-1.411 1.506-1.854.613-.444 1.342-.666 2.187-.666.655 0 1.257.132 1.807.396.549.264 1.014.692 1.395 1.284.38.592.676 1.358.888 2.298.211.94.317 2.087.317 3.439v1.363h-6.657c0 1.817.248 3.191.745 4.121.497.93 1.242 1.395 2.235 1.395.697 0 1.316-.122 1.854-.365.539-.243.967-.481 1.284-.713l.571 1.902zm-23.458-14.899v15.977h-2.441v-7.164h-3.677v7.164h-2.473v-15.977h2.473v6.784h3.677v-6.784h2.441zm28.435 8.02v7.957h-2.473v-15.977h2.473v7.386l3.836-7.386h2.504l-3.963 7.513 4.533 8.464h-2.695l-4.216-7.957zm12.712 8.179c-1.712 0-3.054-.682-4.026-2.045s-1.458-3.418-1.458-6.166c0-1.247.122-2.377.365-3.392.243-1.014.602-1.876 1.078-2.584.476-.708 1.067-1.257 1.775-1.648s1.527-.586 2.457-.586c.719 0 1.3.079 1.743.238.444.159.845.354 1.205.586l-.349 2.346c-.338-.296-.734-.555-1.189-.777-.454-.222-.935-.333-1.442-.333-.888 0-1.617.497-2.187 1.49-.571.993-.856 2.504-.856 4.533 0 2.008.238 3.556.713 4.644.476 1.088 1.22 1.633 2.235 1.633.613 0 1.141-.1 1.585-.301.444-.201.814-.428 1.109-.682l.571 1.839c-.423.359-.898.65-1.427.872-.528.222-1.162.333-1.902.333zm-32.144-14.202h-2.758v.285c0 .845-.016 1.77-.048 2.774s-.1 2.024-.206 3.059c-.106 1.036-.254 2.055-.444 3.059s-.454 1.928-.792 2.774h4.248v-11.951zm10.017-.19c-.761 0-1.3.428-1.617 1.284-.317.856-.518 2.002-.602 3.439h4.089c0-.676-.032-1.305-.095-1.886s-.164-1.083-.301-1.506c-.137-.423-.328-.75-.571-.983-.243-.232-.544-.349-.903-.349zm34.174-3.772c-.011.845-.037 1.659-.079 2.441l-.666 15.501h-1.3l.983-22.666h1.744l3.392 13.98c.148.549.264 1.088.349 1.617.085.528.148 1.036.19 1.522h.063c.106-.993.296-2.039.571-3.138l3.487-13.98h1.775l.983 22.666h-1.522l-.666-15.628c-.042-.888-.063-1.691-.063-2.409v-2.124h-.095c-.106.719-.217 1.411-.333 2.076-.116.666-.259 1.337-.428 2.013l-3.17 12.522h-1.236l-3.138-12.522c-.169-.613-.312-1.247-.428-1.902-.116-.655-.217-1.374-.301-2.156h-.095c0 .613-.005 1.342-.016 2.187zm18.258 17.055c.74 0 1.368-.306 1.886-.919.518-.613.925-1.353 1.22-2.219v-4.406h-1.712c-1.331 0-2.314.317-2.948.951-.634.634-.951 1.648-.951 3.043 0 1.141.227 2.018.682 2.631.454.613 1.062.919 1.823.919zm3.55.888c-.063-.211-.132-.481-.206-.808-.074-.328-.132-.777-.174-1.347-.38.761-.856 1.363-1.427 1.807-.571.444-1.257.666-2.061.666-1.078 0-1.955-.407-2.631-1.22-.676-.814-1.014-1.95-1.014-3.408 0-1.712.454-3.006 1.363-3.883.909-.877 2.23-1.316 3.963-1.316h1.744v-1.997c0-1.226-.222-2.113-.666-2.663-.444-.549-1.109-.824-1.997-.824-.676 0-1.31.153-1.902.46-.592.306-1.078.734-1.458 1.284l-.412-1.427c.317-.423.798-.798 1.442-1.125.645-.328 1.421-.491 2.33-.491 1.331 0 2.351.375 3.059 1.125.708.75 1.062 1.918 1.062 3.503v8.718c0 .549.032 1.104.095 1.664.063.56.148.988.254 1.284h-1.363zm8.876-.888c1.014 0 1.828-.608 2.441-1.823.613-1.215.919-3.091.919-5.627 0-2.113-.264-3.751-.793-4.914-.528-1.162-1.257-1.744-2.187-1.744-.359 0-.703.09-1.03.269-.328.18-.634.417-.919.713-.285.296-.544.639-.777 1.03-.232.391-.433.798-.602 1.22v8.939c.317.655.708 1.141 1.173 1.458.465.317 1.057.476 1.775.476zm-.095 1.173c-.613 0-1.168-.132-1.664-.396-.497-.264-.893-.597-1.189-.999v6.055h-1.49v-20.922h1.3l.127 2.631c.359-.761.835-1.442 1.427-2.045.592-.602 1.331-.903 2.219-.903.655 0 1.247.19 1.775.571.528.38.972.914 1.331 1.601.359.687.634 1.511.824 2.473.19.962.285 2.024.285 3.186 0 2.938-.454 5.13-1.363 6.578-.909 1.448-2.103 2.171-3.582 2.171zm9.288-.285h-1.49v-15.977h1.49v7.513l5.357-7.513h1.458l-5.262 7.418 5.643 8.559h-1.648l-5.547-8.274v8.274zm9.32-7.735c.042 2.198.349 3.873.919 5.024.571 1.152 1.437 1.728 2.599 1.728.528 0 .993-.085 1.395-.254.402-.169.74-.37 1.014-.602.317-.232.592-.518.824-.856l.475 1.205c-.254.359-.56.666-.919.919-.317.232-.708.439-1.173.618-.465.18-1.014.269-1.648.269-1.691 0-2.938-.729-3.741-2.187-.803-1.458-1.205-3.498-1.205-6.118 0-1.31.116-2.478.349-3.503.232-1.025.555-1.897.967-2.615.412-.719.903-1.263 1.474-1.633.571-.37 1.194-.555 1.87-.555.697 0 1.321.18 1.87.539.549.359 1.004.898 1.363 1.617s.613 1.611.761 2.679c.148 1.067.159 2.309.032 3.725h-7.228zm3.202-7.323c-.845 0-1.569.523-2.171 1.569-.602 1.046-.935 2.573-.999 4.581h5.801c.127-2.134-.079-3.693-.618-4.676-.539-.983-1.21-1.474-2.013-1.474zm10.588.317v14.741h-1.49v-14.741h-3.709v-1.236h8.876v1.236h-3.677z" fill="#000"/></g></svg>